<?xml version="1.0" encoding="utf-8"?>
<!-- Generator: Adobe Illustrator 18.0.0, SVG Export Plug-In . SVG Version: 6.00 Build 0)  -->
<!DOCTYPE svg PUBLIC "-//W3C//DTD SVG 1.1//EN" "http://www.w3.org/Graphics/SVG/1.1/DTD/svg11.dtd">
<svg version="1.1" id="Camada_1" xmlns="http://www.w3.org/2000/svg" xmlns:xlink="http://www.w3.org/1999/xlink" x="0px" y="0px"
	 viewBox="54.5 343.9 1080.6 154.1" enable-background="new 54.5 343.9 1080.6 154.1" xml:space="preserve">
<g>
	<path fill="#4A8FB3" d="M809.5,379.5c-1.8,8,3.5,8.4,11.1,8.4c7.4,0,12.5-0.4,14.2-8.4c1.6-7.4-3.3-8.4-10.5-8.4
		C816.8,371.1,811,371.9,809.5,379.5"/>
	<g>
		<path fill="#295166" d="M325.8,393.9c-6.6,0-20.8,1.6-29,8.9c-3.3-7.6-13-8.9-22.4-8.9H269c-9.7,0-29.4,2.3-38.3,4.7l-12.3,57.6
			c-1.9,9.5-1.9,13.4,8.4,13.4h17.7l12.1-56.6c0.6-2.7,5.6-3.7,10.7-3.7c8.2,0,11.3,2.3,9.5,11.5l-10.5,48.6h29l12.1-56.8
			c0.6-2.7,5.8-3.5,10.5-3.5c8.8,0,11.1,3.5,9.3,13.4l-8.2,38.3c-0.6,3.1-1.4,6-2.1,8.8H334c8.6,0,12.1-1.6,14.4-12.3l7.4-34.2
			C360.9,399,352.9,393.9,325.8,393.9z"/>
		<path fill="#295166" d="M422.3,392.3c-27.2,0-52.5,2.7-60.1,38.9c-7.6,35.4,13.4,38.9,41.4,38.9c27.4,0,52.5-2.7,60.1-38.9
			C471.4,395.9,450,392.3,422.3,392.3z M434,431.6c-4.5,21.4-13.2,24.3-26.3,24.3c-13.4,0-20.4-2.9-16-24.3
			c4.5-21.6,12.8-24.7,26.3-24.7C431.3,407.1,438.7,410.2,434,431.6z"/>
		<path fill="#295166" d="M536.3,393.9l-27.8,46.7c-1.8-1.6-2.3-3.7-2.7-7c-2.3-13.2-4.3-26.3-6.2-39.7h-30l11.5,65.2
			c1.8,9.9,4.5,10.5,10.5,10.5h16l45.5-75.7H536.3z"/>
		<path fill="#295166" d="M654.4,389.4l-11.3,53.7c-0.6,2.5-1.4,4.7-1.8,7.2c-2.5,11.3-1.8,20,22.4,20c8.9,0,15.4-1.4,17.3-1.8
			l2.5-11.1c-1.2,0.6-4.3,1.2-6.2,1.2c-8.6,0-7.6-4.7-5.4-14.8l11.9-56.2c0.2-0.6,2.7-11.9,3.5-13.6H669
			C658.3,374.1,656.6,378.5,654.4,389.4z"/>
		<path fill="#295166" d="M601.9,393.9c-30.2,0-51,4.5-58.6,40.3c-7.6,35.6,7.8,36.6,40.9,36.6c35.4,0,43.8-0.2,47.5-18.7
			c-5.4,1.6-29,2.1-36.6,2.1c-19.3,0-25.9-0.4-23.5-16.1h63.8l4.1-19.1C644.5,396.4,620.2,393.9,601.9,393.9z M611.4,420.8l-0.8,4.5
			h-33.5c-1,0-1.9,0-2.7,0.2c3.9-12.6,9.3-15.6,23.1-15.6C607.5,410.1,613.4,412.6,611.4,420.8z"/>
		<path fill="#295166" d="M750.1,393.9c-30.2,0-51,4.5-58.6,40.3c-7.6,35.6,7.8,36.6,40.9,36.6c35.4,0,43.8-0.2,47.5-18.7
			c-5.4,1.6-29,2.1-36.6,2.1c-19.3,0-25.9-0.4-23.5-16.1h63.8l4.1-19.1C792.7,396.4,768.4,393.9,750.1,393.9z M759.7,420.8l-0.8,4.5
			h-36.2c3.9-12.5,9.3-15.4,23.1-15.4C755.8,410.1,761.6,412.6,759.7,420.8z"/>
		<path fill="#295166" d="M821.1,443.9l10.3-49.8h-28.8l-10.7,50.8c-2.7,12.1-9.5,25.7,21.2,25.7c8.9,0,15.2-1.6,17.3-1.9l2.3-11.1
			c-1,0.6-3.5,1.2-5.4,1.2C818,458.7,818.8,453.8,821.1,443.9z"/>
		<path fill="#295166" d="M892.9,393.7c-16,0-31.7,2.5-38.7,4.1l-12.5,58.4c-1.9,9.3-1.8,13.4,6.4,13.4h19.5l12.5-58.4
			c0.8-2.1,5.6-3.5,10.5-3.5c6.6,0,9.7,2.7,7.4,12.6l-0.6,2.9h27.8C929.9,400.9,927,393.7,892.9,393.7z"/>
		<path fill="#295166" d="M991.5,392.3c-27.2,0-52.5,2.7-60.1,38.9c-7.6,35.4,13.4,38.9,41.4,38.9c27.4,0,52.5-2.7,60.1-38.9
			C1040.6,395.9,1019.2,392.3,991.5,392.3z M1003.2,431.6C998.7,453,990,456,977,456c-13.4,0-20.4-2.9-16-24.3
			c4.5-21.6,12.8-24.7,26.3-24.7C1000.5,407.1,1007.9,410.2,1003.2,431.6z"/>
		<path fill="#295166" d="M1102.2,393.1h-4.5c-24.5,0-49,0.2-54.5,25.7c-4.3,20.8,7.8,21.2,25.3,21.2h25.3c4.3,0,6,1.8,5.1,6.2
			c-1.6,7.8-13.2,8.4-21.8,8.4c-14,0-28.8-1-41.4-5.3c-3.5,16.1,0,17.9,7.6,19.1c7.4,1.4,17.7,1.8,27.8,1.8
			c23.9,0,51.6,2.3,57.4-24.9c4.3-21-8.2-22.4-24.3-22.4h-25.3c-4.7,0-8-0.4-6.6-6.2c1.9-8.8,15-7.6,26.5-7.6h8.4
			c10.5,0.4,23.7,1.2,26.3,4.9l1.2-5.4C1137.4,394.7,1129.7,393.7,1102.2,393.1z"/>
	</g>
	<path fill="#4A8FB3" d="M131.5,343.9c42.6,0,77,34.4,77,77s-34.4,77-77,77s-77-34.4-77-77S88.9,343.9,131.5,343.9"/>
	<path fill="#FFFFFF" d="M143.4,363.2c-22.6,7.4-42.8,11.5-58.9-2.3l-0.6-0.4c-2.9,2.3-5.6,4.9-8.2,7.6c0,1,0,1.9,0,2.9
		c0.6,25.1,4.7,44.7,10.9,59.9c1.9-2.1,3.9-4.5,6.8-6.4l0.4-0.2c4.3-2.9,9.1-3.9,13.8-2.7c4.7,1.2,8.9,4.3,12.6,9.3l0.4,0.6
		c4.9,7.2,10.7,12.6,17.1,16.1c6.6,3.7,14,5.6,21.4,5.6c10.5,0,17.9-1.8,23.3-4.3c0.6-0.4,1.4-0.6,1.9-1c2.5-4.5,4.5-9.3,5.3-14.4
		c1.9-11.5-4.1-20-17.9-13c-9.7,4.9-19.1,8.2-23.1-2.1c-3.1-8.2-1.6-20.4,5.1-30.3c3.1-4.7,6.6-7.4,8.8-12.6
		C168.7,361.2,157.8,358.3,143.4,363.2"/>
	<path fill="#FFFFFF" d="M131.3,468.6h6.2v14.6c14,0.4,24.7,3.3,29.8,5.8c-2.1,1.2-4.3,2.1-6.6,3.1c-18.9-2.5-38.1-2.3-57,0.6l0,0
		c-1.6-0.6-3.1-1.4-4.7-1.9c3.1-2.7,14.8-7,32.3-7.6V468.6z"/>
	<path fill="#295166" d="M88.1,434.2c23.1,50.8,72,45.7,92.6,19.3c-5.4,1.9-12.5,3.1-21.6,3.1c-8,0-16-1.9-23.1-6
		c-6.8-3.9-13.2-9.7-18.3-17.3l-0.4-0.6c-3.1-4.5-6.8-7-10.7-8c-3.7-1-7.6-0.2-10.9,2.1l-0.4,0.4c-2.9,2.1-5.1,4.7-7,7H88.1z"/>
</g>
</svg>
